<svg id="logo-svg" xmlns="http://www.w3.org/2000/svg" viewBox="0 0 192 62">
  <path id="logo-svg-text" d="M71.2 26.1c-.1-.1-.2-.3-.2-.6V2.3c0-.3.1-.5.2-.7.2-.2.4-.3.6-.3h4.8c.3 0 .5.1.6.3s.2.4.2.7v7.8l6.3-8c.3-.5.7-.7 1.4-.7h5.5c.2 0 .4.1.5.2.2.2.2.3.2.5s0 .3-.1.4L83 13.4l9 11.9c.1.1.1.2.1.4s0 .3-.1.5c-.2.2-.3.2-.6.2h-5.6c-.4 0-.7-.1-.9-.2-.2-.2-.4-.3-.5-.5L77.6 17v8.5c0 .2-.1.4-.2.6s-.4.3-.6.3H72c-.4 0-.6-.1-.8-.3zM96 24.3c-1.9-1.6-3-4.1-3.1-7.2V14v-3.2C93 7.6 94 5.2 96 3.5c2-1.7 4.6-2.5 8-2.5 2.1 0 4 .3 5.7 1 1.7.7 3 1.7 4 3s1.5 2.9 1.5 4.7c0 .2-.1.4-.2.5-.2.1-.3.2-.6.2h-5.1c-.3 0-.6-.1-.7-.2-.2-.1-.3-.4-.4-.7-.3-1.2-.8-2-1.5-2.4-.7-.5-1.6-.7-2.7-.7-2.7 0-4.1 1.5-4.2 4.5v6c.1 3 1.5 4.5 4.2 4.5 1.1 0 2-.2 2.7-.7.7-.5 1.2-1.3 1.5-2.4.1-.4.2-.6.4-.7.2-.1.4-.2.8-.2h5.1c.2 0 .4.1.6.2.2.1.2.3.2.5 0 1.8-.6 3.3-1.5 4.6s-2.3 2.3-4 3c-1.7.7-3.6 1-5.7 1-3.5.1-6.2-.7-8.1-2.4zm23.1 1.8c-.2-.2-.3-.4-.3-.6V2.3c0-.3.1-.5.2-.7s.4-.3.6-.3h11c3 0 5.3.6 6.8 1.9s2.2 3 2.2 5.3c0 1.1-.3 2.1-.9 3s-1.3 1.4-2 1.8c1 .4 1.8 1.1 2.5 2.1s1 2.1 1 3.3c0 2.4-.8 4.3-2.4 5.6-1.6 1.3-3.9 2-6.8 2h-11.4c-.1.1-.3 0-.5-.2zm11-14.8c.9 0 1.6-.2 2-.7s.7-1.1.7-1.9c0-.7-.2-1.3-.7-1.8-.5-.5-1.1-.7-2.1-.7h-4.5v5.1h4.6zm.3 10.3c.9 0 1.6-.3 2.2-.8.5-.5.8-1.2.8-2s-.3-1.5-.8-2-1.2-.8-2.1-.8h-4.8v5.6h4.7zm14 4.5c-.2-.2-.3-.4-.3-.6V2.3c0-.3.1-.5.2-.7.2-.2.4-.3.6-.3H156c3 0 5.3.6 6.8 1.9s2.2 3 2.2 5.3c0 1.1-.3 2.1-.9 3-.6.8-1.3 1.4-2 1.8 1 .4 1.8 1.1 2.5 2.1s1 2.1 1 3.3c0 2.4-.8 4.3-2.4 5.6s-3.9 2-6.8 2H145c-.2.1-.4 0-.6-.2zm10.9-14.8c.9 0 1.6-.2 2-.7.5-.5.7-1.1.7-1.9 0-.7-.2-1.3-.7-1.8-.5-.5-1.1-.7-2.1-.7h-4.5v5.1h4.6zm.4 10.3c.9 0 1.6-.3 2.2-.8.5-.5.8-1.2.8-2s-.3-1.5-.8-2-1.2-.8-2.1-.8H151v5.6h4.7zm28.9 6.9l-.6-.6-1.2-1.6c-.9.3-1.9.4-3 .4-3.4 0-6.1-.8-8-2.5-2-1.6-3-4.1-3.1-7.3v-3.1-3.1c.1-3.1 1.2-5.6 3.1-7.3 2-1.7 4.6-2.6 8-2.6 3.3 0 6 .9 8 2.6 2 1.7 3 4.1 3.1 7.3.1 1.4.1 2.4.1 3.1 0 .7 0 1.7-.1 3.1-.1 2.9-1 5.2-2.6 6.8l2.6 3.8c.1.1.1.3.1.4v.1c0 .2-.1.3-.2.4-.1.1-.3.2-.5.2h-4.9c-.4.1-.6.1-.8-.1zm-1.9-8.2c.7-.8 1.1-1.9 1.2-3.5.1-1.4.1-2.4.1-3 0-.6 0-1.6-.1-2.9 0-1.6-.4-2.7-1.2-3.4-.7-.8-1.7-1.1-3-1.1-1.2 0-2.2.4-3 1.1-.7.8-1.1 1.9-1.2 3.4v5.9c.1 1.5.4 2.7 1.2 3.5.7.8 1.7 1.1 3 1.1s2.3-.4 3-1.1zM71.5 60.7c-.2-.2-.3-.4-.3-.7V34.9c0-.3.1-.5.3-.7s.4-.3.7-.3h12c3.3 0 5.7.7 7.3 2 1.6 1.3 2.4 3.3 2.4 5.7 0 1.2-.3 2.3-1 3.2-.7.9-1.4 1.6-2.2 2 1.1.5 1.9 1.2 2.7 2.3.7 1.1 1.1 2.3 1.1 3.6 0 2.6-.9 4.6-2.6 6.1-1.7 1.4-4.2 2.2-7.4 2.2H72.2c-.3 0-.5-.1-.7-.3zm11.8-16.1c1 0 1.7-.3 2.2-.8.5-.5.8-1.2.8-2s-.2-1.5-.8-2c-.5-.5-1.2-.8-2.2-.8h-4.8v5.5l4.8.1zm.4 11.1c1 0 1.8-.3 2.3-.9.6-.6.8-1.3.8-2.2 0-.9-.3-1.6-.9-2.2-.6-.6-1.3-.9-2.3-.9h-5.2v6.1l5.3.1zm17.3 5c-.2-.2-.3-.4-.3-.7V34.8c0-.3.1-.5.3-.7s.4-.3.7-.3h5.5c.3 0 .5.1.7.3s.3.4.3.7V60c0 .3-.1.5-.3.7-.2.2-.4.3-.7.3h-5.5c-.3 0-.5-.1-.7-.3zm13.6 0c-.2-.2-.3-.4-.3-.7V34.9c0-.3.1-.5.3-.7s.4-.3.7-.3h12c3.3 0 5.7.7 7.3 2 1.6 1.3 2.4 3.3 2.4 5.7 0 1.2-.3 2.3-1 3.2-.7.9-1.4 1.6-2.2 2 1.1.5 1.9 1.2 2.7 2.3.7 1.1 1.1 2.3 1.1 3.6 0 2.6-.9 4.6-2.6 6.1-1.7 1.4-4.2 2.2-7.4 2.2h-12.3c-.3 0-.5-.1-.7-.3zm11.8-16.1c1 0 1.7-.3 2.2-.8s.8-1.2.8-2-.3-1.5-.8-2-1.2-.8-2.2-.8h-4.8v5.5l4.8.1zm.4 11.1c1 0 1.8-.3 2.3-.9.6-.6.8-1.3.8-2.2 0-.9-.3-1.6-.9-2.2-.6-.6-1.3-.9-2.3-.9h-5.2v6.1l5.3.1zm17.6 5c-.2-.2-.3-.4-.3-.7V34.8c0-.3.1-.5.3-.7.2-.2.4-.3.7-.3h5.4c.3 0 .5.1.7.3.2.2.3.4.3.7v20.1h11.6c.3 0 .5.1.7.3.2.2.3.4.3.7V60c0 .3-.1.5-.3.7-.2.2-.4.3-.7.3h-18c-.2 0-.5-.1-.7-.3zm26.3 0c-.2-.2-.3-.4-.3-.7V34.9c0-.3.1-.5.3-.7.2-.2.4-.3.7-.3h18.3c.3 0 .5.1.7.3.2.2.3.4.3.7v3.8c0 .3-.1.5-.3.7-.2.2-.4.3-.7.3h-12.2v4.9h11.4c.3 0 .5.1.7.3.2.2.3.4.3.7v3.5c0 .3-.1.5-.3.7-.2.2-.4.3-.7.3h-11.4v5H190c.3 0 .5.1.7.3.2.2.3.4.3.7V60c0 .3-.1.5-.3.7-.2.2-.4.3-.7.3h-18.6c-.2 0-.5-.1-.7-.3z"/>
  <g id="logo-svg-flame-icon">
    <path d="M31.3 12.4c.1 3.7.8 6.7 2.2 9s3.5 4 6.2 5.1c.6.2 1.2.4 1.7.5 2.4.2 3-2.5 1.6-7.9-.7-2.9-1.5-5.1-2.2-6.6 5.6 3.7 9.8 8.5 12.6 14.2 2.8 5.8 3.6 11.6 2.3 17.5-.5 2.3-1.3 4.4-2.4 6.2-.4.6-.7 1.2-1.1 1.7C57.7 46.7 61 39.2 61 31 61 15.2 48.7 2.2 33.2 1.1c-1.3 4.3-1.9 8.1-1.9 11.3zM31.2 60.3c0-.3.2-.7.5-1.2s.5-1 .6-1.3c.2-.3.4-.8.7-1.5.7-1.5 1.4-2.9 1.9-4.1.5-1.2.9-2.4 1-3.6.6-3.4.1-6.5-1.3-9.4-1.5-2.9-3.5-5.7-6.2-8.4.7 1.3.9 4 .7 8.1-.2 4-.9 7.2-2 9.4-.5 1-1.1 2.1-1.8 3.1s-1.5 2.1-2.5 3.1c-1 1.1-1.9 1.9-2.9 2.5-.7.4-1.3.7-2.1.9 4 1.9 8.4 3 13.1 3h.1c.1-.2.1-.4.2-.6zM5.8 45.8c-.2-1-.3-2.1-.3-3.2s.1-2.6.4-4.3c.3-1.8.9-3.6 2-5.5s2.5-3.6 4.3-5.2c-.5 1.1-.7 2.4-.5 3.8.1 1.5.4 2.9.8 4.2.4 1.3 1.1 2.4 2.1 3.1 1 .8 2.1 1 3.4.7.6-.1 1.1-.3 1.6-.6.4-.3.8-.6 1.1-1 .3-.4.5-.8.7-1.2.2-.4.3-.9.3-1.6v-1.7c0-.5 0-1.1-.2-2-.1-.9-.2-1.6-.3-2-.1-.5-.2-1.2-.4-2.2-.2-1-.3-1.7-.4-2.1-.5-2.8-.4-5.7.4-8.5s1.8-5.2 3.1-7.1c1.3-1.9 2.8-3.7 4.5-5.4 1.3-1.3 2.3-2.2 3-2.8H31C14.4 1 1 14.4 1 31c0 6.5 2 12.5 5.5 17.4-.3-.9-.5-1.8-.7-2.6z"/>
  </g>
</svg>

