<svg id="Layer_1" xmlns="http://www.w3.org/2000/svg" viewBox="0 0 192 62">
  <path d="M71.25 26.15c-.18-.18-.27-.388-.27-.627V2.317c0-.262.084-.483.25-.662.168-.18.382-.268.646-.268h4.79c.263 0 .477.09.644.268s.25.4.25.662v7.794l6.33-8.01c.26-.475.726-.713 1.394-.713h5.47c.192 0 .363.077.52.233.153.154.232.327.232.518s-.048.335-.144.43l-8.33 10.798 9.01 11.87c.096.097.144.24.144.43s-.08.364-.233.518c-.156.156-.34.233-.554.233h-5.614c-.383 0-.693-.077-.93-.233-.24-.154-.406-.316-.5-.483l-6.796-8.723v8.546c0 .24-.083.447-.25.626s-.38.267-.643.267h-4.79c-.24 0-.45-.09-.628-.268zM95.96 24.307c-1.945-1.644-2.975-4.052-3.094-7.222-.023-.645-.036-1.692-.036-3.147 0-1.478.013-2.55.036-3.218.12-3.1 1.163-5.488 3.128-7.17 1.967-1.68 4.63-2.52 7.992-2.52 2.12 0 4.023.346 5.703 1.037 1.68.69 3.008 1.692 3.986 3.003s1.49 2.86 1.538 4.65c0 .213-.077.392-.233.536-.153.143-.338.214-.553.214h-5.076c-.334 0-.578-.065-.732-.196-.156-.13-.292-.375-.412-.733-.333-1.166-.84-1.984-1.52-2.448-.678-.466-1.58-.698-2.7-.698-2.692 0-4.087 1.503-4.182 4.506-.025.643-.036 1.632-.036 2.968s.012 2.348.036 3.04c.095 3.002 1.49 4.504 4.183 4.504 1.097 0 1.996-.237 2.7-.714.703-.477 1.21-1.288 1.52-2.43.094-.36.226-.603.393-.734.166-.13.416-.196.75-.196h5.077c.215 0 .4.07.554.214.157.143.234.322.234.537-.048 1.787-.56 3.337-1.538 4.648s-2.306 2.312-3.987 3.003c-1.68.692-3.583 1.038-5.704 1.038-3.41-.004-6.085-.826-8.027-2.47zM119.127 26.15c-.178-.18-.268-.388-.268-.627V2.317c0-.262.082-.483.25-.662s.38-.268.644-.268h11.05c3.025 0 5.278.62 6.756 1.86 1.478 1.24 2.217 3.002 2.217 5.29 0 1.145-.303 2.134-.91 2.97s-1.284 1.44-2.023 1.822c.978.428 1.8 1.138 2.468 2.126.67.99 1 2.105 1 3.344 0 2.408-.79 4.28-2.376 5.615-1.586 1.336-3.856 2.002-6.81 2.002h-11.372c-.238 0-.448-.09-.627-.268zm10.924-14.86c.883 0 1.562-.236 2.04-.713s.715-1.097.715-1.86c0-.738-.233-1.34-.697-1.805-.466-.466-1.15-.697-2.057-.697h-4.47v5.076h4.47zm.324 10.3c.93 0 1.65-.27 2.162-.806.514-.535.77-1.197.77-1.985 0-.81-.263-1.485-.787-2.02-.525-.537-1.24-.805-2.146-.805h-4.793v5.613h4.794zM144.41 26.15c-.18-.18-.268-.388-.268-.627V2.317c0-.262.08-.483.25-.662.166-.18.38-.268.643-.268h11.05c3.025 0 5.278.62 6.756 1.86s2.218 3.002 2.218 5.29c0 1.145-.303 2.134-.91 2.97-.61.834-1.284 1.44-2.023 1.822.978.428 1.8 1.138 2.468 2.126.67.99 1 2.105 1 3.344 0 2.408-.79 4.28-2.376 5.615s-3.856 2.002-6.812 2.002h-11.37c-.238 0-.447-.09-.625-.268zm10.924-14.86c.882 0 1.56-.236 2.037-.713.478-.477.717-1.097.717-1.86 0-.738-.233-1.34-.698-1.805-.464-.466-1.15-.697-2.055-.697h-4.47v5.076h4.47zm.32 10.3c.93 0 1.65-.27 2.165-.806.51-.535.767-1.197.767-1.985 0-.81-.262-1.485-.786-2.02-.526-.537-1.24-.805-2.147-.805h-4.79v5.613h4.79zM184.564 28.51c-.204-.157-.39-.353-.556-.592l-1.216-1.573c-.882.285-1.894.43-3.038.43-3.387 0-6.056-.823-8.01-2.47-1.956-1.643-2.992-4.063-3.112-7.258-.023-.666-.035-1.692-.035-3.074s.012-2.42.035-3.112c.12-3.145 1.17-5.57 3.15-7.275 1.975-1.704 4.635-2.556 7.972-2.556 3.338 0 5.994.852 7.973 2.555 1.98 1.705 3.026 4.13 3.146 7.276.05 1.385.073 2.422.073 3.113 0 .714-.023 1.74-.073 3.074-.143 2.908-1.013 5.185-2.61 6.83l2.648 3.755c.07.143.11.262.11.356v.108c0 .167-.074.316-.216.447-.143.13-.31.196-.5.196h-4.936c-.335 0-.603-.077-.804-.23zm-1.84-8.226c.738-.75 1.13-1.9 1.178-3.45.05-1.382.073-2.372.073-2.968 0-.597-.023-1.56-.073-2.897-.047-1.55-.44-2.7-1.18-3.45-.738-.753-1.728-1.13-2.967-1.13-1.24 0-2.23.376-2.968 1.13-.74.75-1.132 1.9-1.18 3.45-.024.667-.036 1.633-.036 2.896 0 1.288.013 2.277.036 2.968.05 1.55.442 2.7 1.18 3.45.74.75 1.73 1.126 2.97 1.126 1.238 0 2.227-.375 2.967-1.126zM71.475 60.68c-.194-.192-.29-.42-.29-.678v-25.14c0-.284.09-.522.27-.716.18-.194.414-.29.698-.29h11.97c3.28 0 5.72.67 7.32 2.014 1.6 1.343 2.402 3.253 2.402 5.733 0 1.24-.33 2.312-.986 3.215-.66.904-1.39 1.563-2.19 1.976 1.058.464 1.95 1.232 2.672 2.305.723 1.07 1.085 2.277 1.085 3.62 0 2.61-.858 4.634-2.577 6.083-1.717 1.446-4.177 2.168-7.38 2.168H72.153c-.26 0-.485-.095-.678-.29zM83.31 44.585c.953 0 1.69-.258 2.206-.774.517-.516.775-1.188.775-2.014 0-.8-.25-1.452-.754-1.955-.503-.504-1.247-.756-2.228-.756h-4.842v5.5h4.843zm.347 11.157c1.008 0 1.788-.29 2.344-.872.557-.582.835-1.298.835-2.15 0-.877-.285-1.608-.853-2.188-.57-.582-1.343-.872-2.325-.872h-5.19v6.082h5.19zM100.968 60.68c-.194-.192-.29-.42-.29-.678V34.824c0-.284.096-.517.29-.697.194-.18.42-.272.678-.272h5.54c.283 0 .516.092.696.272.18.18.272.413.272.697v25.178c0 .26-.092.486-.272.678-.18.195-.413.29-.697.29h-5.54c-.258 0-.484-.095-.677-.29zM114.595 60.68c-.194-.192-.29-.42-.29-.678v-25.14c0-.284.09-.522.27-.716.18-.194.414-.29.698-.29h11.97c3.28 0 5.72.67 7.32 2.014 1.6 1.343 2.402 3.253 2.402 5.733 0 1.24-.33 2.312-.986 3.215-.66.904-1.39 1.563-2.19 1.976 1.058.464 1.95 1.232 2.672 2.305.725 1.07 1.085 2.277 1.085 3.62 0 2.61-.858 4.634-2.577 6.083-1.717 1.446-4.177 2.168-7.38 2.168h-12.318c-.258 0-.483-.095-.677-.29zm11.835-16.095c.954 0 1.69-.258 2.207-.774s.775-1.188.775-2.014c0-.8-.252-1.452-.755-1.955-.503-.504-1.247-.756-2.228-.756h-4.843v5.5h4.843zm.347 11.157c1.008 0 1.788-.29 2.344-.872.557-.582.835-1.298.835-2.15 0-.877-.285-1.608-.853-2.188-.57-.582-1.343-.872-2.325-.872h-5.19v6.082h5.19zM144.434 60.68c-.195-.192-.29-.42-.29-.678V34.824c0-.284.095-.517.29-.697.195-.18.42-.272.678-.272h5.424c.282 0 .515.092.695.272.18.18.272.413.272.697V54.89h11.622c.285 0 .524.096.716.29.195.195.29.434.29.716v4.106c0 .285-.095.518-.29.698-.192.18-.43.27-.716.27h-18.012c-.26 0-.483-.095-.678-.29zM170.74 60.68c-.196-.192-.292-.42-.292-.678v-25.14c0-.284.09-.522.27-.716.18-.194.414-.29.7-.29H189.7c.285 0 .524.096.72.29.19.194.287.432.287.716v3.835c0 .285-.096.517-.288.697-.196.182-.435.272-.72.272h-12.24v4.92h11.388c.285 0 .524.096.72.29.19.194.29.432.29.716v3.525c0 .285-.1.522-.29.717-.196.194-.435.29-.72.29H177.46v5.036h12.552c.282 0 .52.097.716.29.195.193.29.435.29.717v3.835c0 .285-.095.518-.29.698-.195.18-.434.27-.716.27h-18.594c-.26 0-.484-.095-.68-.29zM31.34 12.397c.084 3.7.835 6.692 2.25 8.976 1.415 2.284 3.47 3.99 6.162 5.114.614.24 1.174.392 1.688.46 2.42.17 2.964-2.455 1.636-7.875-.716-2.9-1.45-5.097-2.2-6.6 5.59 3.716 9.795 8.464 12.606 14.244 2.812 5.78 3.57 11.6 2.275 17.462-.51 2.287-1.31 4.364-2.404 6.24-.358.615-.72 1.177-1.084 1.714C57.65 46.71 60.98 39.242 60.98 31c0-15.818-12.243-28.766-27.767-29.91-1.323 4.3-1.948 8.068-1.874 11.307zM31.186 60.26c.05-.255.205-.655.46-1.2.256-.547.46-.99.614-1.33.155-.34.4-.835.743-1.484.748-1.498 1.388-2.87 1.917-4.115.528-1.245.877-2.43 1.05-3.554.578-3.406.134-6.546-1.332-9.41-1.467-2.862-3.546-5.66-6.24-8.386.682 1.33.903 4.016.665 8.054-.238 4.042-.902 7.185-1.994 9.435-.512 1.02-1.108 2.053-1.79 3.092-.683 1.042-1.5 2.09-2.454 3.146-.956 1.058-1.928 1.902-2.915 2.53-.655.42-1.343.726-2.057.94C21.82 59.914 26.273 61 30.98 61l.086-.002c.04-.283.08-.537.12-.737zM5.85 45.765c-.172-1.026-.257-2.098-.257-3.222 0-1.126.13-2.574.383-4.35.256-1.77.92-3.594 1.994-5.468 1.076-1.875 2.497-3.596 4.27-5.167-.478 1.092-.657 2.37-.537 3.835.118 1.47.375 2.857.768 4.17.393 1.313 1.083 2.358 2.072 3.145.99.785 2.13 1.005 3.426.665.614-.136 1.142-.342 1.584-.616.443-.273.8-.62 1.076-1.048.27-.428.503-.834.69-1.227.187-.392.29-.93.307-1.61.016-.683.033-1.253.05-1.715.017-.46-.043-1.132-.178-2.018-.137-.89-.24-1.56-.306-2.02-.07-.46-.204-1.193-.41-2.202-.203-1.005-.34-1.712-.408-2.12-.51-2.83-.376-5.665.41-8.512.783-2.847 1.805-5.2 3.068-7.06 1.26-1.857 2.77-3.655 4.526-5.396 1.275-1.263 2.268-2.196 2.995-2.82-.13-.002-.26-.01-.39-.01-16.568 0-30 13.43-30 30 0 6.474 2.06 12.464 5.546 17.366-.307-.89-.543-1.76-.677-2.6z"/>
</svg>
