<?xml version="1.0" standalone="no"?>
<!DOCTYPE svg PUBLIC "-//W3C//DTD SVG 20010904//EN"
 "http://www.w3.org/TR/2001/REC-SVG-20010904/DTD/svg10.dtd">
<svg version="1.0" xmlns="http://www.w3.org/2000/svg"
 width="16.000000pt" height="16.000000pt" viewBox="0 0 16.000000 16.000000"
 preserveAspectRatio="xMidYMid meet">
<metadata>
Created by potrace 1.11, written by Peter Selinger 2001-2013
</metadata>
<g transform="translate(0.000000,16.000000) scale(0.006154,-0.006154)"
fill="#000000" stroke="none">
<path d="M1120 2589 c-100 -15 -121 -20 -201 -45 -407 -127 -719 -433 -853
-834 -47 -140 -64 -256 -64 -423 1 -206 47 -397 137 -574 41 -79 109 -184 96
-148 -29 85 -41 310 -21 405 29 134 55 199 121 300 55 83 151 186 139 150 -21
-67 -6 -249 28 -335 35 -89 111 -155 179 -155 85 0 153 40 191 114 18 34 22
58 22 136 0 106 -4 141 -38 314 -41 211 -31 356 37 546 38 104 81 180 162 285
59 75 224 246 245 253 6 2 10 8 10 13 0 11 -114 9 -190 -2z"/>
<path d="M1371 2512 c-90 -351 -71 -627 54 -813 67 -98 160 -170 270 -209 119
-41 170 12 159 163 -8 96 -63 308 -109 421 -11 25 3 17 105 -63 247 -195 441
-487 514 -776 26 -102 27 -116 31 -242 5 -192 -38 -373 -122 -520 -24 -42 -43
-79 -43 -81 0 -18 143 167 188 243 36 61 104 202 112 230 1 6 4 15 6 20 120
395 65 811 -149 1130 -222 331 -549 530 -953 579 l-41 5 -22 -87z"/>
<path d="M1193 1297 c27 -72 32 -274 12 -471 -8 -77 -48 -212 -82 -280 -99
-197 -262 -375 -367 -402 -26 -6 -26 -7 -7 -21 29 -20 139 -60 233 -84 96 -25
105 -26 225 -35 85 -5 93 -4 99 13 3 10 33 76 66 148 132 283 149 337 153 490
5 159 -51 303 -186 480 -78 103 -156 189 -146 162z"/>
</g>
</svg>
